<?xml version="1.0" encoding="utf-8"?>
<!-- Generator: Adobe Illustrator 24.1.1, SVG Export Plug-In . SVG Version: 6.00 Build 0)  -->
<svg version="1.1" id="Camada_1" xmlns="http://www.w3.org/2000/svg" xmlns:xlink="http://www.w3.org/1999/xlink" x="0px" y="0px"
	 viewBox="0 0 100 100" style="enable-background:new 0 0 100 100;" xml:space="preserve">
<style type="text/css">
	.st0{fill:none;stroke:#9E9D9C;stroke-width:4.0651;stroke-miterlimit:10;}
	.st1{fill:none;stroke:#9E9D9C;stroke-width:4.0652;stroke-linecap:round;stroke-linejoin:bevel;stroke-miterlimit:10;}
	.st2{fill:#9E9D9C;}
</style>
<g>
	<circle class="st0" cx="50.4" cy="55.7" r="32.2"/>
	<path class="st1" d="M60.7,12.1C52.6,12.1,49.4,24,49.4,24s-3.6-6.4-9.2-6.4"/>
	<path class="st1" d="M41.8,70.6c0,0,3,3,9.4,3c5.9,0,9.4-3,9.4-3"/>
	<circle class="st2" cx="39.2" cy="57.1" r="3.5"/>
	<circle class="st2" cx="63" cy="57.1" r="3.5"/>
	<path class="st2" d="M19.9,59c0,4.4,0.4,7.9-2.6,7.9s-5.5-3.6-5.5-7.9s2.5-7.9,5.5-7.9S19.9,54.6,19.9,59z"/>
	<path class="st2" d="M80.9,59c0-4.4-0.4-7.9,2.6-7.9s5.5,3.6,5.5,7.9s-2.5,7.9-5.5,7.9S80.9,63.4,80.9,59z"/>
</g>
</svg>
