<?xml version="1.0" encoding="utf-8"?>
<!-- Generator: Adobe Illustrator 24.1.1, SVG Export Plug-In . SVG Version: 6.00 Build 0)  -->
<svg version="1.1" id="Camada_1" xmlns="http://www.w3.org/2000/svg" xmlns:xlink="http://www.w3.org/1999/xlink" x="0px" y="0px"
	 viewBox="0 0 100 100" style="enable-background:new 0 0 100 100;" xml:space="preserve">
<style type="text/css">
	.st0{fill:none;stroke:#9E9D9C;stroke-width:4.2889;stroke-linecap:square;stroke-miterlimit:10;}
	.st1{fill:#9E9D9C;}
</style>
<path class="st0" d="M74.8,90.7H26c-4.2,0-7.6-3.2-8-7.3l-4.6-56.9C12.7,17.2,20,9.2,29.3,9.2h42.1c9.3,0,16.7,8,15.9,17.3
	l-4.6,56.9C82.4,87.5,78.9,90.7,74.8,90.7z"/>
<path class="st0" d="M68.3,69.5H31.8c-3.3,0-5.9-2.6-5.9-5.9V27c0-3.3,2.6-5.9,5.9-5.9h36.6c3.3,0,5.9,2.6,5.9,5.9v36.6
	C74.2,66.9,71.6,69.5,68.3,69.5z"/>
<path class="st1" d="M69.5,82.6H34.1c-1.1,0-2.1-0.9-2.1-2.1v-0.4c0-1.1,0.9-2.1,2.1-2.1h35.4c1.1,0,2.1,0.9,2.1,2.1v0.4
	C71.6,81.7,70.6,82.6,69.5,82.6z"/>
<path class="st1" d="M60.6,50c0,5.1-4.1,9.2-9.2,9.2s-9.2-4.1-9.2-9.2s9.2-19.2,9.2-19.2S60.6,44.9,60.6,50z"/>
</svg>
