<?xml version="1.0" encoding="utf-8"?>
<!-- Generator: Adobe Illustrator 24.1.1, SVG Export Plug-In . SVG Version: 6.00 Build 0)  -->
<svg version="1.1" id="Camada_1" xmlns="http://www.w3.org/2000/svg" xmlns:xlink="http://www.w3.org/1999/xlink" x="0px" y="0px"
	 viewBox="0 0 100 100" style="enable-background:new 0 0 100 100;" xml:space="preserve">
<style type="text/css">
	.st0{fill:#9D9D9C;}
</style>
<g>
	<g>
		<path class="st0" d="M57.6,77.5V57.7h19.8c1.6,0,2.8-1.3,2.8-2.8v-9.7c0-1.6-1.3-2.8-2.8-2.8H57.6V22.7c0-1.6-1.3-2.8-2.8-2.8
			h-9.7c-1.6,0-2.8,1.3-2.8,2.8v19.8H22.6c-1.6,0-2.8,1.3-2.8,2.8v9.7c0,1.6,1.3,2.8,2.8,2.8h19.8v19.8c0,1.6,1.3,2.8,2.8,2.8h9.7
			C56.3,80.3,57.6,79,57.6,77.5z"/>
	</g>
	<path class="st0" d="M91.4,8.7v82.9H8.6V8.7H91.4 M100,0.1H0v99.9h99.9V0.1H100z"/>
</g>
</svg>
