<?xml version="1.0" encoding="utf-8"?>
<!-- Generator: Adobe Illustrator 24.1.1, SVG Export Plug-In . SVG Version: 6.00 Build 0)  -->
<svg version="1.1" id="Camada_1" xmlns="http://www.w3.org/2000/svg" xmlns:xlink="http://www.w3.org/1999/xlink" x="0px" y="0px"
	 viewBox="0 0 100 100" style="enable-background:new 0 0 100 100;" xml:space="preserve">
<style type="text/css">
	.st0{fill:#9D9D9C;}
</style>
<path class="st0" d="M91.4,8.7v82.9H8.6V8.7H91.4 M100,0.1H0v99.9h99.9V0.1H100z"/>
<path class="st0" d="M80.9,46.4H74c-0.7,0-1.4-0.5-1.6-1.2c-0.1-0.3-0.1-0.5-0.1-0.7c-0.2-0.8,0.2-1.5,0.9-1.8l2.7-1.1
	c0.8-0.3,1.2-1.2,0.8-2.1l-0.4-1c-0.3-0.8-1.2-1.2-2.1-0.8l-2.7,1.1c-0.7,0.3-1.6,0-1.9-0.6c-0.1-0.3-0.3-0.5-0.5-0.8
	c-0.4-0.6-0.3-1.4,0.2-1.9l4.8-4.8c0.6-0.6,0.6-1.6,0-2.2l-2.8-2.8c-0.6-0.6-1.6-0.6-2.2,0l-4.7,4.9c-0.5,0.5-1.4,0.6-1.9,0.2
	c-0.2-0.1-0.4-0.3-0.6-0.4c-0.6-0.4-0.9-1.2-0.6-1.9l1.1-2.7c0.3-0.8-0.1-1.8-0.8-2.1l-1-0.4c-0.8-0.3-1.8,0.1-2.1,0.8l-1.1,2.7
	c-0.3,0.7-1,1.1-1.8,0.9c-0.3-0.1-0.6-0.1-0.9-0.2c-0.7-0.1-1.2-0.8-1.2-1.6v-6.8c0.1-0.9-0.6-1.6-1.6-1.6H48
	c-0.8,0-1.6,0.7-1.6,1.6v6.8c0,0.7-0.5,1.4-1.2,1.6c-0.3,0.1-0.5,0.1-0.7,0.1c-0.8,0.2-1.5-0.2-1.8-0.9L41.6,24
	c-0.3-0.8-1.2-1.2-2.1-0.8l-1,0.4c-0.8,0.3-1.2,1.2-0.8,2.1l1.1,2.7c0.3,0.7,0,1.6-0.6,1.9c-0.3,0.1-0.5,0.3-0.8,0.5
	c-0.6,0.4-1.4,0.3-1.9-0.2l-4.8-4.8c-0.6-0.6-1.6-0.6-2.2,0l-2.8,2.8c-0.6,0.6-0.6,1.6,0,2.2l4.8,4.8c0.5,0.5,0.6,1.4,0.2,1.9
	c-0.1,0.2-0.3,0.4-0.4,0.6c-0.4,0.6-1.2,0.9-1.9,0.6l-2.7-1.1c-0.8-0.3-1.8,0.1-2.1,0.8l-0.4,1c-0.3,0.8,0.1,1.8,0.8,2.1l2.7,1.1
	c0.7,0.3,1.1,1,0.9,1.8c-0.1,0.3-0.1,0.6-0.2,0.9c-0.1,0.7-0.8,1.2-1.6,1.2h-6.8c-0.8-0.1-1.6,0.6-1.6,1.4v3.9
	c0,0.8,0.7,1.6,1.6,1.6H26c0.7,0,1.4,0.5,1.6,1.2c0.1,0.3,0.1,0.5,0.1,0.7c0.2,0.8-0.2,1.5-0.9,1.8L24,58.3
	c-0.8,0.3-1.2,1.2-0.8,2.1l0.4,1c0.3,0.8,1.2,1.2,2.1,0.8l2.7-1.1c0.7-0.3,1.6,0,1.9,0.6c0.1,0.3,0.3,0.5,0.5,0.8
	c0.4,0.6,0.3,1.4-0.2,1.9l-4.9,4.9c-0.6,0.6-0.6,1.6,0,2.2l2.8,2.8c0.6,0.6,1.6,0.6,2.2,0l4.9-4.9c0.5-0.5,1.4-0.6,1.9-0.2
	c0.2,0.1,0.4,0.3,0.6,0.4c0.6,0.4,0.9,1.2,0.6,1.9l-1.1,2.7c-0.3,0.8,0.1,1.8,0.8,2.1l1,0.4c0.8,0.3,1.8-0.1,2.1-0.8l1.1-2.7
	c0.3-0.7,1-1.1,1.8-0.9c0.3,0.1,0.6,0.1,0.9,0.2c0.7,0.1,1.2,0.8,1.2,1.6V81c0,0.8,0.7,1.6,1.6,1.6H52c0.8,0,1.6-0.7,1.6-1.6v-7
	c0-0.7,0.5-1.4,1.2-1.6c0.3-0.1,0.5-0.1,0.6-0.1c0.8-0.2,1.5,0.2,1.8,0.9l1.1,2.7c0.3,0.8,1.2,1.2,2.1,0.8l1-0.4
	c0.8-0.3,1.2-1.2,0.8-2.1l-1.1-2.7c-0.3-0.7,0-1.6,0.6-1.9c0.3-0.1,0.5-0.3,0.8-0.5c0.6-0.4,1.4-0.3,1.9,0.2l4.9,4.9
	c0.6,0.6,1.6,0.6,2.2,0l2.8-2.8c0.6-0.6,0.6-1.6,0-2.2l-5-4.7c-0.5-0.5-0.6-1.4-0.2-1.9c0.1-0.2,0.3-0.4,0.4-0.6
	c0.4-0.6,1.2-0.9,1.9-0.6l2.7,1.1c0.8,0.3,1.8-0.1,2.1-0.8l0.4-1c0.3-0.8-0.1-1.8-0.8-2.1l-2.7-1.1c-0.7-0.3-1.1-1-0.9-1.8
	c0.1-0.3,0.1-0.6,0.2-0.9c0.1-0.7,0.8-1.2,1.6-1.2h6.8c0.8,0,1.6-0.7,1.6-1.6V48C82.4,47.1,81.7,46.4,80.9,46.4z M38.5,45.6
	c-1.9,0-3.5-1.6-3.5-3.5s1.6-3.5,3.5-3.5c1.9,0,3.5,1.6,3.5,3.5C41.9,44,40.4,45.6,38.5,45.6z M50,67.7c-4.9,0-8.8-4-8.8-8.8
	s4-8.9,8.8-8.9s8.8,4,8.8,8.8S54.8,67.7,50,67.7z M57,44.2c-2.8,0-5-2.3-5-5c0-2.7,2.3-5,5-5c2.7,0,5,2.3,5,5
	C62,42,59.8,44.2,57,44.2z"/>
</svg>
