<?xml version="1.0" encoding="utf-8"?>
<!-- Generator: Adobe Illustrator 24.1.1, SVG Export Plug-In . SVG Version: 6.00 Build 0)  -->
<svg version="1.1" id="Camada_1" xmlns="http://www.w3.org/2000/svg" xmlns:xlink="http://www.w3.org/1999/xlink" x="0px" y="0px"
	 viewBox="0 0 100 100" style="enable-background:new 0 0 100 100;" xml:space="preserve">
<style type="text/css">
	.st0{fill:#9D9D9C;}
</style>
<path class="st0" d="M97.6,44.6H87.1c-1.1,0-2.1-0.8-2.4-1.9c-0.1-0.4-0.2-0.7-0.2-1.1c-0.3-1.2,0.3-2.3,1.4-2.8l4.1-1.7
	c1.2-0.5,1.8-1.9,1.3-3.2l-0.6-1.5c-0.5-1.2-1.9-1.8-3.2-1.3l-4.1,1.7c-1.1,0.5-2.4,0-3-1c-0.2-0.4-0.5-0.8-0.8-1.2
	c-0.6-0.9-0.5-2.2,0.3-3l7.4-7.4c0.9-0.9,0.9-2.5,0-3.4l-4.3-4.3c-0.9-0.9-2.5-0.9-3.4,0L72.4,20c-0.8,0.8-2.1,1-3,0.3
	c-0.3-0.2-0.6-0.4-0.9-0.6c-1-0.6-1.4-1.9-1-3l1.7-4.1c0.5-1.2-0.1-2.7-1.3-3.2l-1.5-0.6c-1.2-0.5-2.7,0.1-3.2,1.3l-1.7,4.1
	c-0.5,1.1-1.6,1.7-2.8,1.4c-0.5-0.1-0.9-0.2-1.4-0.3c-1.1-0.2-1.9-1.2-1.9-2.4V2.5C55.5,1.1,54.4,0,53,0h-6c-1.3,0-2.4,1.1-2.4,2.4
	v10.5c0,1.1-0.8,2.1-1.9,2.4c-0.4,0.1-0.7,0.2-1.1,0.2c-1.2,0.3-2.3-0.3-2.8-1.4L37.1,10c-0.5-1.2-1.9-1.8-3.2-1.3l-1.5,0.6
	c-1.2,0.5-1.8,1.9-1.3,3.2l1.7,4.1c0.4,1.1,0,2.4-1,3c-0.4,0.2-0.8,0.5-1.2,0.8c-0.9,0.6-2.2,0.5-3-0.3l-7.4-7.4
	c-0.9-0.9-2.5-0.9-3.4,0l-4.3,4.3c-0.9,0.9-0.9,2.5,0,3.4l7.4,7.4c0.8,0.8,1,2.1,0.3,3c-0.2,0.3-0.4,0.6-0.6,0.9c-0.6,1-1.9,1.4-3,1
	l-4.1-1.7c-1.2-0.5-2.7,0.1-3.2,1.3l-0.6,1.5c-0.5,1.2,0.1,2.7,1.3,3.2l4.1,1.7c1.1,0.5,1.7,1.6,1.4,2.8c-0.1,0.5-0.2,0.9-0.3,1.4
	c-0.2,1.1-1.2,1.9-2.4,1.9H2.4C1.1,44.6,0,45.7,0,47v6c0,1.3,1.1,2.4,2.4,2.4H13c1.1,0,2.1,0.8,2.4,1.9c0.1,0.4,0.2,0.7,0.2,1.1
	c0.3,1.2-0.3,2.3-1.4,2.8L10,62.9c-1.2,0.5-1.8,1.9-1.3,3.2l0.6,1.5c0.5,1.2,1.9,1.8,3.2,1.3l4.2-1.7c1.1-0.4,2.4,0,3,1
	c0.2,0.4,0.5,0.8,0.7,1.2c0.6,0.9,0.5,2.2-0.3,3l-7.5,7.5c-0.9,0.9-0.9,2.5,0,3.4l4.3,4.3c0.9,0.9,2.5,0.9,3.4,0l7.5-7.5
	c0.8-0.8,2.1-1,3-0.3c0.3,0.2,0.6,0.4,0.9,0.6c1,0.6,1.4,1.9,1,3l-1.7,4.2c-0.5,1.2,0.1,2.7,1.3,3.2l1.5,0.6
	c1.2,0.5,2.7-0.1,3.2-1.3l1.7-4.2c0.5-1.1,1.6-1.7,2.8-1.4c0.5,0.1,0.9,0.2,1.4,0.3c1.1,0.2,1.9,1.2,1.9,2.4v10.6
	c0,1.3,1.1,2.4,2.4,2.4h6c1.3,0,2.4-1.1,2.4-2.4V87c0-1.1,0.8-2.1,1.9-2.4c0.4-0.1,0.7-0.2,1-0.2c1.2-0.3,2.3,0.3,2.8,1.4l1.7,4.2
	c0.5,1.2,1.9,1.8,3.2,1.3l1.5-0.6c1.2-0.5,1.8-1.9,1.3-3.2l-1.7-4.2c-0.4-1.1,0-2.4,1-3c0.4-0.2,0.8-0.5,1.2-0.7
	c0.9-0.6,2.2-0.5,3,0.3l7.5,7.5c0.9,0.9,2.5,0.9,3.4,0l4.3-4.3c0.9-0.9,0.9-2.5,0-3.4L80,72.4c-0.8-0.8-1-2.1-0.3-3
	c0.2-0.3,0.4-0.6,0.6-0.9c0.6-1,1.9-1.4,3-1l4.2,1.7c1.2,0.5,2.7-0.1,3.2-1.3l0.6-1.5c0.5-1.2-0.1-2.7-1.3-3.2l-4.1-1.7
	c-1.1-0.5-1.7-1.6-1.4-2.8c0.1-0.5,0.2-0.9,0.3-1.4c0.2-1.1,1.2-1.9,2.4-1.9h10.5c1.3,0,2.4-1.1,2.4-2.4v-6
	C100,45.7,98.9,44.6,97.6,44.6z M32.3,43.3c-3,0-5.4-2.4-5.4-5.4c0-3,2.4-5.4,5.4-5.4c3,0,5.4,2.4,5.4,5.4
	C37.6,40.9,35.2,43.3,32.3,43.3z M50,77.3c-7.5,0-13.6-6.1-13.6-13.6S42.5,50,50,50s13.6,6.1,13.6,13.6S57.5,77.3,50,77.3z
	 M60.8,41.2c-4.3,0-7.7-3.5-7.7-7.7s3.5-7.7,7.7-7.7s7.7,3.5,7.7,7.7S65.1,41.2,60.8,41.2z"/>
</svg>
