<?xml version="1.0" encoding="utf-8"?>
<!-- Generator: Adobe Illustrator 24.1.1, SVG Export Plug-In . SVG Version: 6.00 Build 0)  -->
<svg version="1.1" id="Camada_1" xmlns="http://www.w3.org/2000/svg" xmlns:xlink="http://www.w3.org/1999/xlink" x="0px" y="0px"
	 viewBox="0 0 500 500" style="enable-background:new 0 0 500 500;" xml:space="preserve">
<style type="text/css">
	.st0{fill:#BD1818;}
</style>
<path class="st0" d="M485.6,221.4H433c-4.8,0-11.1-3.2-12.7-9.6c0-1.6,0-3.2,0-4.8c-1.6-6.4,1.6-11.1,6.4-14.3l20.7-8
	c6.4-1.6,9.5-9.5,6.4-15.9l-3.2-8c-1.6-6.4-9.6-9.5-15.9-6.4l-20.7,8c-4.8,1.6-12.7,0-14.3-4.8c0-1.6-1.6-3.2-3.2-6.4
	c-3.2-4.8-1.6-11.1,1.6-14.3l36.6-36.6c4.8-4.8,4.8-12.7,0-17.5l-20.7-20.7c-4.8-4.8-12.7-4.8-17.5,0l-36.6,36.6
	c-3.2,6.4-11.1,6.4-14.3,3.2c-1.6,0-3.2-1.6-4.8-3.2c-4.8-3.2-6.4-9.6-4.8-14.3l8-20.7c1.6-6.4,0-14.3-6.4-15.9l-8-3.2
	c-6.4-1.6-14.3,0-15.9,6.4l-8,20.7c-1.6,4.8-8,8-14.3,6.4c-1.6,0-4.8,0-6.4-1.6c-4.8,0-9.6-6.4-9.6-12.7V12.9
	c0-6.4-4.8-12.7-12.7-12.7h-28.7c-6.4,0-12.7,4.8-12.7,12.7v52.5c0,4.8-3.2,11.1-9.6,12.7c-1.6,0-3.2,0-4.8,0
	c-6.4,1.6-11.1-1.6-14.3-6.4l-6.4-20.7c-1.6-6.4-9.6-9.6-15.9-6.4l-8,3.2c-6.4,1.6-9.6,9.5-6.4,15.9l8,20.7c1.6,4.8,0,12.7-4.8,14.3
	c-1.6,0-3.2,1.6-6.4,3.2c-3.2,3.2-9.5,3.2-14.3-1.6L102,63.9c-4.8-4.8-12.7-4.8-17.5,0L63.8,84.6c-4.8,4.8-4.8,12.7,0,17.5
	l36.6,36.6c3.2,3.2,4.8,11.1,1.6,14.3c0,1.6-1.6,3.2-3.2,4.8c-3.2,4.8-9.6,6.4-14.3,4.8l-20.7-8c-6.4-1.6-14.3,0-15.9,6.4l-3.2,8
	c-1.6,6.4,0,14.3,6.4,15.9l20.7,8c4.8,1.6,8,8,6.4,14.3c0,1.6,0,4.8-1.6,6.4c0,4.8-6.4,9.6-12.7,9.6H12.8c-6.4,0-12.7,4.8-12.7,11.1
	v30.2c0,6.4,4.8,12.7,12.7,12.7H67c4.8,0,11.1,3.2,12.7,9.6c0,1.6,0,3.2,0,4.8c1.6,6.4-1.6,11.1-6.4,14.3L51,312.2
	c-6.4,1.6-9.5,9.6-6.4,15.9l3.2,8c1.6,6.4,9.6,9.6,15.9,6.4l20.7-8c4.8-1.6,12.7,0,14.3,4.8c0,1.6,1.6,3.2,3.2,6.4
	c3.2,4.8,1.6,11.1-1.6,14.3l-36.6,36.6c-4.8,4.8-4.8,12.7,0,17.5l20.7,20.7c4.8,4.8,12.7,4.8,17.5,0l36.6-36.6
	c3.2-3.2,11.1-4.8,14.3-1.6c1.6,0,3.2,1.6,4.8,3.2c4.8,3.2,6.4,9.6,4.8,14.3l-8,20.7c-1.6,6.4,0,14.3,6.4,15.9l8,3.2
	c6.4,1.6,14.3,0,15.9-6.4l8-20.7c1.6-4.8,8-8,14.3-6.4c1.6,0,4.8,0,6.4,1.6c4.8,0,9.6,6.4,9.6,12.7v52.5c0,6.4,4.8,12.7,12.7,12.7
	h30.2c6.4,0,12.7-4.8,12.7-12.7v-54.1c0-4.8,3.2-11.1,9.6-12.7c1.6,0,3.2,0,4.8,0c6.4-1.6,11.1,1.6,14.3,6.4l8,20.7
	c1.6,6.4,9.6,9.6,15.9,6.4l8-3.2c6.4-1.6,9.6-9.6,6.4-15.9l-8-20.7c-1.6-4.8,0-12.7,4.8-14.3c1.6,0,3.2-1.6,6.4-3.2
	c4.8-3.2,11.1-1.6,14.3,1.6l36.6,36.6c4.8,4.8,12.7,4.8,17.5,0l20.7-20.7c4.8-4.8,4.8-12.7,0-17.5L398,359.9
	c-3.2-3.2-4.8-11.1-1.6-14.3c0-1.6,1.6-3.2,3.2-4.8c3.2-4.8,9.6-6.4,14.3-4.8l20.7,8c6.4,1.6,14.3,0,15.9-6.4l3.2-8
	c1.6-6.4,0-14.3-6.4-15.9l-20.7-8c-4.8-1.6-8-8-6.4-14.3c0-1.6,0-4.8,1.6-6.4c0-4.8,6.4-9.6,12.7-9.6h52.5c6.4,0,12.7-4.8,12.7-12.7
	v-30.2C496.7,226.2,491.9,221.4,485.6,221.4z M324.7,186.8c-5.5-4-12.2-7.4-20.2-10.2c-7.9-2.7-16.5-4.1-25.8-4.1
	c-5.1,0-9.9,0.4-14.5,1.3c-4.6,0.8-8.7,2.3-12.2,4.3c-3.5,2-6.3,4.6-8.4,7.8c-2.1,3.2-3.1,7.1-3.1,11.7c0,4.2,0.8,7.8,2.5,10.6
	c1.7,2.9,3.8,5.3,6.4,7.5c2.6,2.1,5.7,4,9.3,5.7c3.5,1.7,7.3,3.5,11.2,5.4c6.8,3.4,13.4,7,19.8,10.8c6.4,3.8,12,8.2,16.9,13.2
	c4.8,5,8.7,10.6,11.6,17c2.9,6.4,4.3,13.9,4.3,22.5c0,12.1-2.3,22.5-6.9,31.4c-4.6,8.9-11.1,16.3-19.5,22.2
	c-8.4,5.9-18.3,10.3-29.9,13.2c-11.6,2.9-24.4,4.3-38.5,4.3c-9.3,0-17.9-0.7-25.9-2.2c-8-1.5-15.3-3.2-21.8-5.2
	c-6.5-2-12.1-4.2-16.9-6.5c-4.7-2.3-8.5-4.4-11.4-6.3l21.8-37.8c2.6,1.7,5.8,3.5,9.6,5.4c3.7,1.9,8,3.7,12.7,5.4
	c4.7,1.7,9.8,3.1,15,4.3c5.3,1.2,10.8,1.7,16.5,1.7c5.1,0,10.1-0.4,15.2-1.1c5.1-0.7,9.6-2.1,13.6-4c4-1.9,7.2-4.6,9.8-8.1
	c2.5-3.5,3.8-8,3.8-13.5c0-4.2-1.2-7.9-3.6-11c-2.4-3.1-5.5-5.9-9.3-8.4c-3.7-2.5-7.9-4.9-12.6-7c-4.6-2.1-9.3-4.4-13.9-7
	c-5.9-3.4-11.6-7-16.9-10.8c-5.3-3.8-9.8-8.1-13.6-12.9c-3.7-4.8-6.7-10.1-8.9-15.9c-2.2-5.8-3.3-12.5-3.3-20.2
	c0-9.7,1.9-18.8,5.8-27.1c3.9-8.4,9.6-15.6,17.2-21.7c7.6-6.1,17.1-11,28.6-14.4c11.5-3.5,24.9-5.2,40.3-5.2c7,0,13.9,0.6,20.5,1.7
	c6.6,1.2,12.8,2.6,18.5,4.3c5.7,1.7,11,3.7,15.7,5.9c4.7,2.2,8.8,4.4,12.1,6.5L324.7,186.8z"/>
</svg>
