<?xml version="1.0" encoding="utf-8"?>
<!-- Generator: Adobe Illustrator 24.1.1, SVG Export Plug-In . SVG Version: 6.00 Build 0)  -->
<svg version="1.1" id="Camada_1" xmlns="http://www.w3.org/2000/svg" xmlns:xlink="http://www.w3.org/1999/xlink" x="0px" y="0px"
	 viewBox="0 0 100 100" style="enable-background:new 0 0 100 100;" xml:space="preserve">
<style type="text/css">
	.st0{fill:#9D9D9C;}
</style>
<g>
	<g>
		<path class="st0" d="M58.3,80.1V46.5h13.8c1.7,0,3.1-1.4,3.1-3.1v-7.8c0-1.7-1.4-3.1-3.1-3.1l-13.8,0V20c0-1.7-1.4-3.1-3.1-3.1
			l-10.5,0c-1.7,0-3.1,1.4-3.1,3.1l0,12.4H27.9c-1.7,0-3.1,1.4-3.1,3.1v7.8c0,1.7,1.4,3.1,3.1,3.1l13.8,0v33.6
			c0,1.7,1.4,3.1,3.1,3.1h10.5C56.9,83.2,58.3,81.8,58.3,80.1z"/>
	</g>
	<path class="st0" d="M91.4,8.7v82.9H8.6V8.7H91.4 M100,0.1H0v99.9h99.9V0.1H100z"/>
</g>
</svg>
