<?xml version="1.0" encoding="utf-8"?>
<!-- Generator: Adobe Illustrator 24.1.1, SVG Export Plug-In . SVG Version: 6.00 Build 0)  -->
<svg version="1.1" id="Camada_1" xmlns="http://www.w3.org/2000/svg" xmlns:xlink="http://www.w3.org/1999/xlink" x="0px" y="0px"
	 viewBox="0 0 100 100" style="enable-background:new 0 0 100 100;" xml:space="preserve">
<style type="text/css">
	.st0{fill:#9D9D9C;}
</style>
<g>
	<path class="st0" d="M91.4,8.7v82.9H8.6V8.7H91.4 M100,0.1H0v99.9h99.9V0.1H100z"/>
	<g>
		<path class="st0" d="M47,59.1c-0.8-0.8-1.3-2-1.6-3.4L40.9,29c0-0.4-0.1-0.8-0.1-1.3c0-2.5,0.9-4.6,2.6-6.1s4-2.1,6.5-2.1
			c2.6,0,4.9,0.8,6.6,2.2c1.7,1.5,2.5,3.6,2.5,6.1c0,0.5,0,1.1-0.1,1.3l-4.5,26.5c-0.1,1.5-0.7,2.6-1.5,3.4c-0.8,0.8-1.9,1.2-3,1.2
			C48.8,60.3,47.8,59.9,47,59.1z M44,78.2c-1.6-1.6-2.4-3.6-2.4-6c0-2.4,0.8-4.4,2.4-6c1.6-1.6,3.6-2.4,6-2.4c2.4,0,4.2,0.8,5.8,2.4
			s2.4,3.6,2.4,6c0,2.4-0.8,4.4-2.4,6s-3.6,2.4-5.8,2.4C47.6,80.8,45.6,80,44,78.2z"/>
	</g>
</g>
</svg>
