<?xml version="1.0" encoding="utf-8"?>
<!-- Generator: Adobe Illustrator 24.1.1, SVG Export Plug-In . SVG Version: 6.00 Build 0)  -->
<svg version="1.1" id="Camada_1" xmlns="http://www.w3.org/2000/svg" xmlns:xlink="http://www.w3.org/1999/xlink" x="0px" y="0px"
	 viewBox="0 0 100 100" style="enable-background:new 0 0 100 100;" xml:space="preserve">
<style type="text/css">
	.st0{fill:none;stroke:#9E9D9C;stroke-width:4.2889;stroke-linecap:square;stroke-miterlimit:10;}
	.st1{fill:#9E9D9C;}
</style>
<g>
	<line class="st0" x1="29.3" y1="36.8" x2="29.3" y2="51.6"/>
	<line class="st0" x1="36.7" y1="44.2" x2="21.9" y2="44.2"/>
</g>
<g>
	<path class="st0" d="M69.3,28.7H10.9v33.9h0c-1.3,0-2.4,1.1-2.4,2.4v5.6c0,1.6,1.3,2.9,2.9,2.9h6.4c0,4.7,3.8,8.6,8.6,8.6
		c4.7,0,8.6-3.8,8.6-8.6h31.2c0,4.7,3.8,8.6,8.6,8.6s8.6-3.8,8.6-8.6h6.2c1.5,0,2.8-1.2,2.8-2.8v-5.1c0-1.7-1.4-3.1-3.1-3.1h-1.3
		l-3.3-10.4c-0.3-1.1-1-2.1-2-2.7l-4.5-3.1l-5.3-15.2C72.3,29.7,70.9,28.7,69.3,28.7z"/>
</g>
<path class="st0" d="M77.3,46.2H52.7c-0.7,0-1.3-0.6-1.3-1.3v-8.3c0-0.8,0.7-1.5,1.5-1.5h21.4L77.3,46.2z"/>
<line class="st0" x1="88.2" y1="62.6" x2="12.6" y2="62.6"/>
<path class="st0" d="M57.7,26.9h-9.8l0.7-6.8c0.1-1.3,1.2-2.3,2.5-2.3h3.3c1.3,0,2.4,1,2.5,2.3L57.7,26.9z"/>
<circle class="st1" cx="26.4" cy="73.6" r="1.6"/>
<circle class="st0" cx="26.4" cy="73.6" r="8.6"/>
<circle class="st1" cx="74.8" cy="73.6" r="1.6"/>
<circle class="st0" cx="74.8" cy="73.6" r="8.6"/>
</svg>
