<?xml version="1.0" encoding="utf-8"?>
<!-- Generator: Adobe Illustrator 24.1.1, SVG Export Plug-In . SVG Version: 6.00 Build 0)  -->
<svg version="1.1" id="Camada_1" xmlns="http://www.w3.org/2000/svg" xmlns:xlink="http://www.w3.org/1999/xlink" x="0px" y="0px"
	 viewBox="0 0 100 100" style="enable-background:new 0 0 100 100;" xml:space="preserve">
<style type="text/css">
	.st0{fill:#9E9D9C;}
	.st1{fill:none;stroke:#9E9D9C;stroke-width:4.0652;stroke-linejoin:round;stroke-miterlimit:10;}
</style>
<g>
	<path class="st0" d="M72.4,11.6c14.5,0,23.9,10.1,23.9,25.6c0,15.5-16.3,33.7-46,51.1C20.7,70.9,4.5,52.7,4.5,37.2
		c0-15.6,9.4-25.6,23.9-25.6c5.3,0,11.5,3.3,18.5,9.8c1,0.9,2.2,1.4,3.5,1.4c1.3,0,2.5-0.5,3.5-1.4C61.1,14.8,67.1,11.6,72.4,11.6
		 M72.4,7.5c-7,0-14.2,4.4-21.3,10.9c-0.2,0.2-0.5,0.3-0.7,0.3s-0.5-0.1-0.7-0.3C42.6,11.8,35.3,7.5,28.4,7.5
		c-16.6,0-28,11.8-28,29.7c0,18.6,19.6,38,48.2,54.8c0.5,0.3,1.1,0.5,1.8,0.5c0.6,0,1.2-0.2,1.8-0.5c28.7-16.8,48.3-36.1,48.3-54.8
		C100.4,19.3,89,7.5,72.4,7.5L72.4,7.5z"/>
</g>
<polyline class="st1" points="80,50.9 65,50.9 59.1,55.9 53.9,43.6 42.9,68 35.1,27.2 28.4,58.3 22.1,43.2 16.9,50 6.3,50 "/>
<circle class="st0" cx="80" cy="50.9" r="5"/>
</svg>
