<?xml version="1.0" encoding="utf-8"?>
<!-- Generator: Adobe Illustrator 24.1.1, SVG Export Plug-In . SVG Version: 6.00 Build 0)  -->
<svg version="1.1" id="Camada_1" xmlns="http://www.w3.org/2000/svg" xmlns:xlink="http://www.w3.org/1999/xlink" x="0px" y="0px"
	 viewBox="0 0 100 100" style="enable-background:new 0 0 100 100;" xml:space="preserve">
<style type="text/css">
	.st0{fill:#9D9D9C;}
</style>
<g>
	<g>
		<path class="st0" d="M77.1,65.4L61.8,50.1l15.3-15.3c1.2-1.2,1.2-3.2,0-4.4l-7.4-7.4c-1.2-1.2-3.2-1.2-4.4,0L50,38.3L34.7,22.9
			c-1.2-1.2-3.2-1.2-4.4,0l-7.4,7.4c-1.2,1.2-1.2,3.2,0,4.4l15.3,15.3L22.9,65.4c-1.2,1.2-1.2,3.2,0,4.4l7.4,7.4
			c1.2,1.2,3.2,1.2,4.4,0L50,61.8l15.3,15.3c1.2,1.2,3.2,1.2,4.4,0l7.4-7.4C78.3,68.6,78.3,66.6,77.1,65.4z"/>
	</g>
	<path class="st0" d="M91.4,8.7v82.9H8.6V8.7H91.4 M100,0.1H0v99.9h99.9V0.1H100z"/>
</g>
</svg>
