<?xml version="1.0" encoding="utf-8"?>
<!-- Generator: Adobe Illustrator 24.1.1, SVG Export Plug-In . SVG Version: 6.00 Build 0)  -->
<svg version="1.1" id="Camada_1" xmlns="http://www.w3.org/2000/svg" xmlns:xlink="http://www.w3.org/1999/xlink" x="0px" y="0px"
	 viewBox="0 0 100 100" style="enable-background:new 0 0 100 100;" xml:space="preserve">
<style type="text/css">
	.st0{fill:none;stroke:#9E9D9C;stroke-width:4.0652;stroke-linecap:round;stroke-linejoin:bevel;stroke-miterlimit:10;}
	.st1{fill:none;stroke:#9E9D9C;stroke-width:2.8745;stroke-linecap:round;stroke-linejoin:bevel;stroke-miterlimit:10;}
	.st2{fill:none;stroke:#9E9D9C;stroke-width:1.716;stroke-linecap:round;stroke-linejoin:bevel;stroke-miterlimit:10;}
	.st3{fill:#9E9D9C;}
	.st4{fill:none;stroke:#9E9D9C;stroke-width:4.0651;stroke-miterlimit:10;}
</style>
<path class="st0" d="M19,40.4c-3.3-8.5,5.4-10.1,5.4-10.1s0.1-7.5,6.3-6.6"/>
<path class="st1" d="M41,63.1c0,0,3,1.5,9.4,1.5c5.9,0,9.4-1.5,9.4-1.5"/>
<path class="st2" d="M44.9,41.9c0,0-1.3-1.3-4-1.3c-2.5,0-4,1.3-4,1.3"/>
<g>
	<circle class="st3" cx="41.2" cy="46.6" r="3.4"/>
</g>
<g>
	<path class="st2" d="M63.8,41.9c0,0-1.3-1.3-4-1.3c-2.5,0-4,1.3-4,1.3"/>
	<g>
		<circle class="st3" cx="60" cy="46.6" r="3.4"/>
	</g>
</g>
<g>
	<circle class="st4" cx="50.4" cy="50" r="32.2"/>
	<path class="st0" d="M71.1,23.7c9.2-0.2,7.7,8.5,7.7,8.5s7.1,2.6,4.1,8.1"/>
	<path class="st3" d="M19.9,53.2c0,4.4,0.4,7.9-2.6,7.9s-5.5-3.6-5.5-7.9s2.5-7.9,5.5-7.9S19.9,48.8,19.9,53.2z"/>
	<path class="st3" d="M80.9,53.2c0-4.4-0.4-7.9,2.6-7.9s5.5,3.6,5.5,7.9s-2.5,7.9-5.5,7.9S80.9,57.6,80.9,53.2z"/>
</g>
</svg>
