<?xml version="1.0" encoding="utf-8"?>
<!-- Generator: Adobe Illustrator 24.1.1, SVG Export Plug-In . SVG Version: 6.00 Build 0)  -->
<svg version="1.1" id="Camada_1" xmlns="http://www.w3.org/2000/svg" xmlns:xlink="http://www.w3.org/1999/xlink" x="0px" y="0px"
	 viewBox="0 0 100 100" style="enable-background:new 0 0 100 100;" xml:space="preserve">
<style type="text/css">
	.st0{fill:none;stroke:#9E9D9C;stroke-width:4.2889;stroke-linecap:square;stroke-miterlimit:10;}
	.st1{fill:#9E9D9C;}
</style>
<path class="st0" d="M74.8,88.3H26C15.3,88.3,8.3,77,13.2,67.4l24.4-47.5c5.3-10.4,20.2-10.4,25.5,0l24.4,47.5
	C92.4,77,85.5,88.3,74.8,88.3z"/>
<g>
	<path class="st1" d="M47.9,60c-0.7-0.7-1.1-1.6-1.3-2.8L43,35.4c0-0.3-0.1-0.7-0.1-1.1c0-2.1,0.7-3.7,2.1-4.9
		c1.4-1.2,3.2-1.8,5.4-1.8c2.2,0,4,0.6,5.4,1.8c1.4,1.2,2.1,2.9,2.1,5c0,0.5,0,0.8-0.1,1.1l-3.7,21.7c-0.1,1.2-0.5,2.1-1.2,2.8
		c-0.7,0.7-1.5,1-2.5,1C49.4,60.9,48.6,60.6,47.9,60z M45.5,75.7c-1.3-1.3-1.9-2.9-1.9-4.8c0-1.9,0.6-3.5,1.9-4.8
		c1.3-1.3,2.9-2,4.9-2c1.9,0,3.5,0.7,4.8,2c1.3,1.3,1.9,2.9,1.9,4.8c0,1.9-0.6,3.5-1.9,4.8c-1.3,1.3-2.9,2-4.8,2
		C48.4,77.7,46.8,77,45.5,75.7z"/>
</g>
</svg>
